<?xml version="1.0" encoding="UTF-8" standalone="no"?>
<!-- Creator: CorelDRAW -->

<svg
   xmlns:dc="http://purl.org/dc/elements/1.1/"
   xmlns:cc="http://creativecommons.org/ns#"
   xmlns:rdf="http://www.w3.org/1999/02/22-rdf-syntax-ns#"
   xmlns:svg="http://www.w3.org/2000/svg"
   xmlns="http://www.w3.org/2000/svg"
   xmlns:xlink="http://www.w3.org/1999/xlink"
   xmlns:sodipodi="http://sodipodi.sourceforge.net/DTD/sodipodi-0.dtd"
   xmlns:inkscape="http://www.inkscape.org/namespaces/inkscape"
   xml:space="preserve"
   width="400px"
   height="160px"
   style="shape-rendering:geometricPrecision; text-rendering:geometricPrecision; image-rendering:optimizeQuality; fill-rule:evenodd; clip-rule:evenodd"
   viewBox="0 0 400 160"
   id="svg3317"
   version="1.1"
   inkscape:version="0.48.1 "
   sodipodi:docname="bancologgggggg2.svg"><metadata
   id="metadata3364"><rdf:RDF><cc:Work
       rdf:about=""><dc:format>image/svg+xml</dc:format><dc:type
         rdf:resource="http://purl.org/dc/dcmitype/StillImage" /><dc:title></dc:title></cc:Work></rdf:RDF></metadata><sodipodi:namedview
   pagecolor="#ffffff"
   bordercolor="#666666"
   borderopacity="1"
   objecttolerance="10"
   gridtolerance="10"
   guidetolerance="10"
   inkscape:pageopacity="0"
   inkscape:pageshadow="2"
   inkscape:window-width="1366"
   inkscape:window-height="706"
   id="namedview3362"
   showgrid="false"
   inkscape:zoom="1"
   inkscape:cx="105.99926"
   inkscape:cy="108.13205"
   inkscape:window-x="-8"
   inkscape:window-y="-8"
   inkscape:window-maximized="1"
   inkscape:current-layer="svg3317" />
 <defs
   id="defs3319">
  <style
   type="text/css"
   id="style3321">
   
    .fil1 {fill:white}
    .fil4 {fill:#0093DD;fill-rule:nonzero}
    .fil3 {fill:url(#id0)}
    .fil0 {fill:url(#id1)}
    .fil2 {fill:url(#id2)}
   
  </style>
  <linearGradient
   id="id0"
   gradientUnits="userSpaceOnUse"
   x1="77.9175"
   y1="55.3159"
   x2="77.9175"
   y2="100.781">
   <stop
   offset="0"
   style="stop-color:#75C5F0"
   id="stop3324" />
   <stop
   offset="0.509804"
   style="stop-color:#0093DD"
   id="stop3326" />
   <stop
   offset="1"
   style="stop-color:#B6DDC7"
   id="stop3328" />
  </linearGradient>
  <linearGradient
   id="id1"
   gradientUnits="userSpaceOnUse"
   x1="77.9175"
   y1="8.0823"
   x2="77.9175"
   y2="77.8029">
   <stop
   offset="0"
   style="stop-color:#75C5F0"
   id="stop3331" />
   <stop
   offset="0.541176"
   style="stop-color:#007CC3"
   id="stop3333" />
   <stop
   offset="1"
   style="stop-color:white"
   id="stop3335" />
  </linearGradient>
  <linearGradient
   id="id2"
   gradientUnits="userSpaceOnUse"
   href="#id1"
   x1="77.9175"
   y1="30.4654"
   x2="77.9175"
   y2="77.8017">
  </linearGradient>
 
  
  
  
  
  
  
  
  
  
  
  
  
 <linearGradient
   inkscape:collect="always"
   xlink:href="#id0"
   id="linearGradient3373"
   gradientUnits="userSpaceOnUse"
   x1="77.9175"
   y1="55.3159"
   x2="77.9175"
   y2="100.781" /><linearGradient
   inkscape:collect="always"
   xlink:href="#id1"
   id="linearGradient3379"
   gradientUnits="userSpaceOnUse"
   x1="77.9175"
   y1="8.0823"
   x2="77.9175"
   y2="77.8029" /><linearGradient
   inkscape:collect="always"
   xlink:href="#id1-9"
   id="linearGradient3379-4"
   gradientUnits="userSpaceOnUse"
   x1="77.917503"
   y1="8.0823002"
   x2="77.917503"
   y2="77.802902" /><linearGradient
   id="id1-9"
   gradientUnits="userSpaceOnUse"
   x1="77.917503"
   y1="8.0823002"
   x2="77.917503"
   y2="77.802902"><stop
     offset="0"
     style="stop-color:#75C5F0"
     id="stop3331-3" /><stop
     offset="0.541176"
     style="stop-color:#007CC3"
     id="stop3333-1" /><stop
     offset="1"
     style="stop-color:white"
     id="stop3335-1" /></linearGradient><linearGradient
   gradientTransform="matrix(0.68524551,0,0,0.68524551,24.524894,24.959655)"
   y2="77.802902"
   x2="77.917503"
   y1="8.0823002"
   x1="77.917503"
   gradientUnits="userSpaceOnUse"
   id="linearGradient3397"
   xlink:href="#id1-9"
   inkscape:collect="always" /></defs>
 <path
   inkscape:connector-curvature="0"
   style="fill:url(#linearGradient3379)"
   id="path3340"
   d="M 77.9175,77.8029 8.439,77.394238 c 0.220867,-38.3469 31.265,-69.3131 69.4785,-69.3131 38.3658,0 69.4785,31.2225 69.4785,69.7218 l -69.4785,0 z"
   class="fil0" /><path
   style="fill:#ffffff"
   inkscape:connector-curvature="0"
   id="path3342"
   d="m 77.9175,78.4679 -51.821,0.486615 c 0,-0.158268 0,-0.328347 0,-0.486615 0,-28.6158 23.2052,-51.821 51.821,-51.821 28.6158,0 51.821,23.2052 51.821,51.821 l -51.821,0 z"
   class="fil1" /><path
   style="fill:#0093dd;fill-rule:nonzero"
   inkscape:connector-curvature="0"
   id="path3350"
   d="m 368.381,62.406 c 3.23623,0 6.12403,0.453544 8.66695,1.36063 2.54292,0.907088 4.69253,2.21811 6.44883,3.93544 1.7563,1.71615 3.09804,3.81261 4.02166,6.2882 0.92362,2.47678 1.38662,5.25946 1.38662,8.34923 0,3.08977 -0.46299,5.87245 -1.38662,8.34805 -0.92362,2.47678 -2.26536,4.56143 -4.02166,6.25277 -1.7563,1.69134 -3.90591,2.99174 -6.44883,3.89883 -2.54292,0.90709 -5.43072,1.36063 -8.66695,1.36063 -6.47245,0 -11.4992,-1.74095 -15.0827,-5.22284 -3.58111,-3.4819 -5.37285,-8.36104 -5.37285,-14.6374 0,-3.08977 0.46181,-5.87245 1.38662,-8.34923 0.92362,-2.4756 2.26418,-4.57206 4.02166,-6.2882 1.7563,-1.71733 3.8941,-3.02835 6.4134,-3.93544 2.52048,-0.907088 5.39765,-1.36063 8.63388,-1.36063 z m 0.0343,8.4449 c -2.83347,0 -5.15907,1.02874 -6.97915,3.08859 -1.82126,2.05867 -2.7319,4.85906 -2.7319,8.40238 0,3.54331 0.92599,6.33308 2.77441,8.36458 1.84843,2.03268 4.16221,3.04843 6.93663,3.04843 2.89016,0 5.23111,-1.00276 7.02285,-3.00945 1.79292,-2.00552 2.68819,-4.80828 2.68819,-8.40356 0,-3.59528 -0.89528,-6.40986 -2.68819,-8.44254 -1.79174,-2.0315 -4.13269,-3.04843 -7.02285,-3.04843 z"
   class="fil4" /><path
   style="fill:#0093dd;fill-rule:nonzero"
   inkscape:connector-curvature="0"
   id="path3352"
   d="m 346.3,72.3084 c 0.31536,-2.18504 -12.9213,0.492521 -12.9213,13.0996 l 0,16.1079 -12.2044,0 0,-37.8083 10.8862,0 0,7.20946 c 2.37638,-5.3256 5.85355,-7.35946 12.0496,-7.94883 0.62953,-0.06024 1.8189,0.05433 2.51221,0.151181 l -0.32244,9.18899 z"
   class="fil4" /><path
   style="fill:#0093dd;fill-rule:nonzero"
   inkscape:connector-curvature="0"
   id="path3354"
   d="m 313.104,74.8112 c -7.63466,-3.96851 -20.8512,-1.90748 -20.8512,8.26301 0,10.9004 13.8721,12.652 21.8185,8.04687 l 0.29882,9.70041 c -3.37442,1.1504 -7.41852,1.72441 -12.1323,1.72441 -3.1252,0 -5.96694,-0.46654 -8.52167,-1.40079 -2.55591,-0.93425 -4.75158,-2.25119 -6.58702,-3.95198 -1.83662,-1.70079 -3.26339,-3.74765 -4.27914,-6.14411 -1.01811,-2.39528 -1.52599,-5.02914 -1.52599,-7.90395 0,-3.01772 0.49488,-5.72363 1.48819,-8.11891 0.99213,-2.39528 2.43189,-4.44332 4.31694,-6.14293 1.88504,-1.70079 4.19292,-3.00591 6.92127,-3.91654 2.72953,-0.909451 5.80513,-1.36418 9.22915,-1.36418 3.2752,0 6.84804,0.646064 10.7173,1.93937 l -0.89292,9.26931 z"
   class="fil4" /><path
   style="fill:#0093dd;fill-rule:nonzero"
   inkscape:connector-curvature="0"
   id="path3356"
   d="m 274.889,101.516 -9.57285,0.24567 -0.1748,-0.6874 c -4.05709,0.98504 -17.3587,2.81103 -22.4268,-2.389373 -2.12363,-2.18032 -3.18898,-5.0882 -3.18898,-8.71655 0,-4.26615 1.56024,-7.39253 4.68072,-9.37797 3.1193,-1.98662 7.91576,-2.97993 14.3882,-2.97993 l 5.34214,0 c 0,-5.31143 -0.45237,-7.77757 -5.84292,-8.23584 -2.85473,-0.243308 -11.4709,0.729923 -15.6319,2.78977 l -0.28465,-7.53663 c 4.41261,-1.78583 9.25041,-2.45197 14.2689,-2.45197 5.91733,0 11.7414,1.97481 14.4213,5.0634 2.68111,3.08741 4.02166,7.91931 4.02166,14.4898 l 0,19.787003 z m -14.0965,-17.1 c -3.763,-0.0012 -6.54096,0.42756 -8.32206,1.27677 -1.78347,0.851576 -2.6752,2.31969 -2.6752,4.39725 0,1.38425 0.45354,2.53347 1.35473,3.43583 2.02205,2.02323 12.8055,1.6689 12.7843,-0.43819 l -0.085,-8.67167 -3.0567,0 z"
   class="fil4" /><polygon
   style="fill:#0093dd;fill-rule:nonzero"
   id="polygon3358"
   points="202.695,86.5242 212.965,50.4686 230.728,50.4686 233.944,101.516 221.879,101.516 220.177,67.2391 219.796,61.1293 207.834,101.516 196.323,101.516 184.545,61.3218 182.687,101.516 171.061,101.516 174.54,50.3221 192.579,50.4686 202.662,86.5301 "
   class="fil4" /><path
   style="fill:#0093dd;fill-rule:nonzero"
   inkscape:connector-curvature="0"
   id="path3360"
   d="m 26.8878,117.428 0,2.9941 -7.16931,0 0,22.656 -3.62363,0 0,-22.656 -7.16931,0 0,-2.9941 17.9622,0 z m 4.84017,7.09608 0,10.2756 c 0,1.89685 0.325985,3.30237 0.979136,4.213 0.653151,0.91181 1.6937,1.36772 3.12402,1.36772 1.6004,0 2.82638,-0.60945 3.67678,-1.82835 0.850395,-1.22126 1.27559,-3.0378 1.27559,-5.45316 l 0,-8.57482 3.43701,0 0,18.554 -3.14174,0 0,-3.58465 c -1.35473,2.56182 -3.49843,3.84331 -6.43112,3.84331 -2.0941,0 -3.67678,-0.64606 -4.74922,-1.94056 -1.07126,-1.29331 -1.60748,-3.23386 -1.60748,-5.82048 l 0,-11.0516 3.43701,0 z m 32.9304,15.6355 2.73544,0 c 2.0941,0 3.67205,-0.38858 4.73151,-1.16575 1.05827,-0.77599 1.58859,-1.90276 1.58859,-3.38032 0,-1.45394 -0.486615,-2.55709 -1.45985,-3.30946 -0.97323,-0.75118 -2.44607,-1.12677 -4.41615,-1.12677 l -3.17953,0 0,8.9823 z m 0,-11.7544 2.62441,0 c 1.89804,0 3.32599,-0.3626 4.28741,-1.09016 0.960238,-0.72638 1.44095,-1.75512 1.44095,-3.08623 0,-1.2815 -0.454725,-2.26654 -1.36654,-2.95631 -0.912994,-0.69095 -2.25473,-1.03583 -4.02875,-1.03583 l -2.95749,0 0,8.16852 z m 3.32599,-10.9772 c 2.85945,0 5.02678,0.57992 6.50552,1.7374 1.47874,1.15748 2.21811,2.73544 2.21811,4.73151 0,1.40315 -0.400394,2.59843 -1.20236,3.58465 -0.799608,0.98504 -1.97717,1.6878 -3.52914,2.10591 1.79882,0.41929 3.16064,1.17166 4.08426,2.25591 0.923624,1.08307 1.38662,2.43898 1.38662,4.06536 0,2.24174 -0.80197,3.99804 -2.40237,5.26655 -1.60276,1.26969 -3.94253,1.90276 -7.02285,1.90276 l -6.91182,0 0,-25.6501 6.87403,0 z m 20.9174,16.4847 c -2.0941,0 -3.68268,0.32598 -4.76694,0.97914 -1.08425,0.65315 -1.6252,1.58386 -1.6252,2.78977 0,0.91299 0.301182,1.67008 0.904726,2.27363 0.603544,0.60472 1.42205,0.9059 2.45788,0.9059 1.55197,0 2.80985,-0.49252 3.77009,-1.47874 0.961419,-0.98504 1.44095,-2.35276 1.44095,-4.10316 l 0,-1.36654 -2.1815,0 z m 5.50867,9.16537 -3.06851,0 0,-3.10394 c -1.42914,2.24292 -3.54804,3.36261 -6.35671,3.36261 -0.88701,0 -1.6937,-0.13465 -2.42126,-0.4063 -0.726379,-0.27047 -1.34882,-0.64725 -1.86615,-1.12677 -0.517324,-0.48071 -0.917718,-1.05355 -1.20236,-1.71969 -0.282284,-0.66378 -0.424017,-1.40315 -0.424017,-2.21693 0,-1.99489 0.806695,-3.53505 2.42126,-4.6193 1.61339,-1.08425 4.00985,-1.62638 7.18938,-1.62638 l 2.40119,0 0,-0.37087 c 0,-1.45276 -0.400394,-2.58071 -1.20118,-3.38032 -0.800789,-0.80079 -1.92756,-1.20236 -3.38268,-1.20236 -1.6004,0 -3.32599,0.51733 -5.17324,1.55315 l -0.03661,-2.80867 c 0.961419,-0.46771 1.95237,-0.80787 2.97402,-1.01693 1.02284,-0.20905 2.10119,-0.31417 3.23505,-0.31417 4.60749,0 6.91182,2.57481 6.91182,7.72442 l 0,11.2725 z m 20.1414,0 -3.4382,0 0,-10.4221 c 0,-1.89685 -0.33189,-3.30827 -0.99803,-4.2319 -0.66497,-0.92362 -1.7126,-1.38544 -3.14056,-1.38544 -1.50355,0 -2.70473,0.55984 -3.60473,1.68071 -0.89882,1.12205 -1.34882,2.75316 -1.34882,4.89686 l 0,9.46183 -3.435833,0 0,-18.554 3.140563,0 0,3.4382 c 1.35591,-2.58662 3.51142,-3.88111 6.46773,-3.88111 2.0941,0 3.67796,0.65315 4.7504,1.95945 1.07126,1.3063 1.60748,3.25158 1.60748,5.83938 l 0,11.1981 z m 16.7776,-14.9681 c -1.15748,-0.64016 -2.48741,-0.96142 -3.99095,-0.96142 -0.93662,0 -1.79882,0.16063 -2.5878,0.48071 -0.78898,0.32008 -1.46575,0.76418 -2.03268,1.3311 -0.56575,0.56693 -1.00984,1.2626 -1.32992,2.08819 -0.32008,0.82441 -0.48071,1.73032 -0.48071,2.71654 0,1.00984 0.14764,1.92756 0.44291,2.75316 0.29528,0.82559 0.72166,1.52717 1.27559,2.10709 0.55394,0.57874 1.22008,1.02756 1.99607,1.34882 0.77481,0.32008 1.64528,0.48071 2.60552,0.48071 1.37953,0 2.79686,-0.34488 4.24961,-1.03465 l 0.18544,3.02953 c -1.55197,0.56693 -3.20316,0.8504 -4.95237,0.8504 -1.42914,0 -2.72245,-0.22796 -3.88111,-0.68268 -1.15748,-0.45709 -2.14961,-1.09725 -2.9752,-1.92166 -0.8256,-0.82678 -1.45985,-1.8189 -1.90276,-2.97638 -0.4441,-1.15748 -0.66615,-2.45079 -0.66615,-3.88111 0,-1.40433 0.22796,-2.69174 0.68386,-3.86103 0.45591,-1.17166 1.10906,-2.16969 1.95945,-2.9941 0.84922,-0.8256 1.87205,-1.46575 3.06733,-1.92284 1.19528,-0.45591 2.5193,-0.68268 3.97324,-0.68268 1.70079,0 3.24095,0.25866 4.6193,0.77598 l -0.25866,2.95631 z m 10.7551,-1.40433 c -0.81378,0 -1.55906,0.16654 -2.23701,0.49843 -0.67795,0.33307 -1.2626,0.80669 -1.75512,1.42323 -0.4937,0.61535 -0.8752,1.36063 -1.14567,2.23583 -0.27165,0.87519 -0.40748,1.84252 -0.40748,2.90197 0,1.05945 0.13583,2.02087 0.40748,2.88308 0.27047,0.86102 0.65197,1.6004 1.14567,2.21693 0.49252,0.61535 1.07717,1.09016 1.75512,1.42323 0.67795,0.33189 1.42323,0.49842 2.23701,0.49842 1.65,0 2.98583,-0.62717 4.00985,-1.88504 1.02284,-1.2567 1.53307,-2.9693 1.53307,-5.13662 0,-2.19331 -0.51024,-3.91772 -1.53307,-5.17442 -1.02402,-1.2567 -2.35985,-1.88504 -4.00985,-1.88504 z m -0.0378,-2.62441 c 1.40433,0 2.67875,0.22205 3.8256,0.66496 1.14567,0.4441 2.113,1.08425 2.90079,1.92166 0.78898,0.83859 1.39843,1.86142 1.82953,3.06851 0.43111,1.20709 0.64725,2.56182 0.64725,4.06536 0,1.50355 -0.21614,2.85827 -0.64725,4.06536 -0.4311,1.20827 -1.04646,2.22993 -1.84843,3.06733 -0.80078,0.83859 -1.76811,1.47874 -2.90079,1.92284 -1.13386,0.44292 -2.40237,0.66496 -3.8067,0.66496 -1.40433,0 -2.67284,-0.22204 -3.80788,-0.66496 -1.13268,-0.44409 -2.0941,-1.08425 -2.8819,-1.92284 -0.78897,-0.8374 -1.39843,-1.85906 -1.82953,-3.06733 -0.4311,-1.20709 -0.64724,-2.56182 -0.64724,-4.06536 0,-1.50355 0.21614,-2.85827 0.64724,-4.06536 0.43111,-1.20709 1.04055,-2.22993 1.82953,-3.06851 0.7878,-0.8374 1.74922,-1.47756 2.8819,-1.92166 1.13504,-0.44291 2.40355,-0.66496 3.80788,-0.66496 z m 37.1812,4.02875 c -1.15866,-0.64016 -2.48859,-0.96142 -3.99213,-0.96142 -0.93543,0 -1.79882,0.16063 -2.5878,0.48071 -0.78779,0.32008 -1.46457,0.76418 -2.0315,1.3311 -0.56693,0.56693 -1.01103,1.2626 -1.3311,2.08819 -0.32007,0.82441 -0.48071,1.73032 -0.48071,2.71654 0,1.00984 0.14882,1.92756 0.4441,2.75316 0.29528,0.82559 0.72047,1.52717 1.27441,2.10709 0.55512,0.57874 1.22008,1.02756 1.99607,1.34882 0.77599,0.32008 1.64528,0.48071 2.6067,0.48071 1.37835,0 2.79567,-0.34488 4.24843,-1.03465 l 0.18543,3.02953 c -1.55197,0.56693 -3.20197,0.8504 -4.95119,0.8504 -1.43032,0 -2.72363,-0.22796 -3.88229,-0.68268 -1.15748,-0.45709 -2.14961,-1.09725 -2.9752,-1.92166 -0.82559,-0.82678 -1.45866,-1.8189 -1.90276,-2.97638 -0.44409,-1.15748 -0.66496,-2.45079 -0.66496,-3.88111 0,-1.40433 0.22795,-2.69174 0.68268,-3.86103 0.45709,-1.17166 1.10906,-2.16969 1.95945,-2.9941 0.85039,-0.8256 1.87323,-1.46575 3.06733,-1.92284 1.19528,-0.45591 2.52048,-0.68268 3.97442,-0.68268 1.69961,0 3.23977,0.25866 4.6193,0.77598 l -0.25866,2.95631 z m 17.9977,6.50552 -13.1209,0 c 0.12284,1.99489 0.75237,3.54213 1.88504,4.63702 1.13386,1.09725 2.67402,1.64528 4.6193,1.64528 0.8882,0 1.7504,-0.11575 2.5878,-0.35079 0.83741,-0.23386 1.6878,-0.57283 2.55001,-1.01693 l 0,2.95749 c -0.8622,0.36969 -1.77992,0.63426 -2.75316,0.7937 -0.97323,0.16063 -2.01378,0.24095 -3.12284,0.24095 -1.40551,0 -2.66812,-0.22795 -3.78898,-0.68386 -1.12087,-0.45591 -2.07638,-1.10906 -2.86418,-1.95945 -0.78897,-0.84921 -1.39252,-1.88504 -1.81063,-3.10394 -0.41929,-1.22008 -0.62834,-2.60552 -0.62834,-4.15867 0,-1.42796 0.20905,-2.73426 0.62834,-3.91654 0.41812,-1.18347 1.00984,-2.18741 1.77402,-3.013 0.76418,-0.82441 1.67599,-1.46575 2.73544,-1.92166 1.05827,-0.45591 2.22993,-0.68386 3.51024,-0.68386 2.41536,0 4.3193,0.80079 5.71064,2.40237 1.39252,1.60158 2.08819,3.8445 2.08819,6.72757 l 0,1.40433 z m -3.21615,-2.29252 c -0.12283,-1.87205 -0.59763,-3.30119 -1.42205,-4.28741 -0.82559,-0.98504 -1.94056,-1.47756 -3.34607,-1.47756 -1.35473,0 -2.48859,0.49843 -3.39922,1.49646 -0.91181,0.99803 -1.46575,2.42126 -1.66418,4.26851 l 9.83152,0 z m 15.3744,-4.73032 c -0.51732,-0.14882 -0.99685,-0.22205 -1.44095,-0.22205 -1.55315,0 -2.76024,0.54213 -3.62245,1.62638 -0.8622,1.08425 -1.29331,2.67402 -1.29331,4.76812 l 0,9.31301 -3.43701,0 0,-18.554 3.10394,0 0,3.80788 c 0.51733,-1.32992 1.23307,-2.35394 2.14371,-3.06851 0.91182,-0.71338 1.98426,-1.07126 3.21497,-1.07126 0.39449,0 0.8752,0.0366 1.44213,0.11103 l -0.11102,3.28938 z m 14.5985,0.51732 c -1.15866,-0.64016 -2.48859,-0.96142 -3.99213,-0.96142 -0.93543,0 -1.79882,0.16063 -2.5878,0.48071 -0.78779,0.32008 -1.46575,0.76418 -2.0315,1.3311 -0.56693,0.56693 -1.01103,1.2626 -1.3311,2.08819 -0.32007,0.82442 -0.48071,1.73032 -0.48071,2.71654 0,1.00984 0.14882,1.92756 0.4441,2.75316 0.29528,0.8256 0.72047,1.52718 1.27441,2.10709 0.55394,0.57875 1.22008,1.02756 1.99607,1.34882 0.77599,0.32008 1.64528,0.48071 2.60552,0.48071 1.37953,0 2.79686,-0.34488 4.24961,-1.03465 l 0.18543,3.02953 c -1.55197,0.56693 -3.20197,0.8504 -4.95119,0.8504 -1.43032,0 -2.72363,-0.22795 -3.88229,-0.68268 -1.15748,-0.45709 -2.14961,-1.09725 -2.9752,-1.92166 -0.82559,-0.82677 -1.45866,-1.8189 -1.90276,-2.97638 -0.44409,-1.15748 -0.66496,-2.45079 -0.66496,-3.88111 0,-1.40433 0.22795,-2.69174 0.68268,-3.86103 0.45591,-1.17166 1.10906,-2.16969 1.95945,-2.9941 0.85039,-0.82559 1.87323,-1.46575 3.06733,-1.92284 1.19528,-0.45591 2.5193,-0.68268 3.97324,-0.68268 1.70079,0 3.24095,0.25866 4.62048,0.77599 l -0.25866,2.95631 z m 11.1969,5.80277 c -2.09528,0 -3.68387,0.32599 -4.76812,0.97914 -1.08425,0.65315 -1.6252,1.58386 -1.6252,2.78977 0,0.91299 0.30119,1.67008 0.90473,2.27363 0.60354,0.60473 1.42205,0.90591 2.45788,0.90591 1.55197,0 2.80985,-0.49252 3.77009,-1.47874 0.96142,-0.98504 1.44213,-2.35276 1.44213,-4.10316 l 0,-1.36654 -2.1815,0 z m 5.50749,9.16537 -3.06733,0 0,-3.10394 c -1.43032,2.24292 -3.54922,3.36261 -6.35789,3.36261 -0.88701,0 -1.6937,-0.13464 -2.42126,-0.4063 -0.72637,-0.27047 -1.34882,-0.64724 -1.86615,-1.12677 -0.51732,-0.48071 -0.91771,-1.05355 -1.20118,-1.71969 -0.28346,-0.66378 -0.42519,-1.40315 -0.42519,-2.21693 0,-1.99489 0.80787,-3.53505 2.42126,-4.6193 1.61339,-1.08425 4.00985,-1.62638 7.18938,-1.62638 l 2.40237,0 0,-0.37086 c 0,-1.45276 -0.40158,-2.58071 -1.20236,-3.38032 -0.80079,-0.80079 -1.92756,-1.20236 -3.3815,-1.20236 -1.60158,0 -3.32717,0.51732 -5.17442,1.55315 l -0.0366,-2.80867 c 0.96142,-0.46772 1.95237,-0.80788 2.97402,-1.01693 1.02284,-0.20906 2.10119,-0.31418 3.23505,-0.31418 4.60749,0 6.91182,2.57481 6.91182,7.72442 l 0,11.2725 z m 8.90553,-3.91654 -3.03071,8.50041 -2.9941,0 2.29134,-8.50041 3.73347,0 z m 26.6469,-11.3469 c -1.50237,-0.71575 -3.06733,-1.07244 -4.69371,-1.07244 -0.98622,0 -1.74922,0.19725 -2.29134,0.59174 -0.54212,0.39449 -0.81378,0.89882 -0.81378,1.51536 0,0.71456 0.30827,1.29331 0.92481,1.7374 0.61654,0.44291 1.50237,0.93543 2.66103,1.47756 0.8374,0.39449 1.57677,0.78307 2.21693,1.16457 0.64016,0.38149 1.17638,0.79488 1.60748,1.2378 0.43228,0.44409 0.75827,0.93661 0.98032,1.47874 0.22204,0.54212 0.33189,1.15866 0.33189,1.84843 0,1.62638 -0.65906,2.94922 -1.97599,3.97324 -1.31929,1.02284 -3.17363,1.53307 -5.563,1.53307 -0.81379,0 -1.63229,-0.0732 -2.45788,-0.22205 -0.8256,-0.14764 -1.63347,-0.3815 -2.42126,-0.70158 l 0.11102,-2.88308 c 0.86221,0.41811 1.7126,0.73347 2.55001,0.94252 0.8374,0.21024 1.62638,0.31418 2.36575,0.31418 1.18229,0 2.0941,-0.25276 2.73544,-0.75709 0.64016,-0.50551 0.96024,-1.15276 0.96024,-1.94056 0,-0.8126 -0.29528,-1.44213 -0.88701,-1.88504 -0.59055,-0.44409 -1.41614,-0.9248 -2.4756,-1.44213 -0.83859,-0.39331 -1.57087,-0.7878 -2.19922,-1.18229 -0.62953,-0.39449 -1.15866,-0.80787 -1.58977,-1.23898 -0.43111,-0.4311 -0.75709,-0.89882 -0.97914,-1.40433 -0.22205,-0.50433 -0.33307,-1.07717 -0.33307,-1.71733 0,-1.40551 0.59173,-2.57008 1.77402,-3.49253 1.18347,-0.9248 2.84646,-1.38662 4.99017,-1.38662 1.50237,0 3.04253,0.23386 4.6193,0.70158 l -0.14764,2.80985 z m 7.02167,-3.29056 0,18.554 -3.4382,0 0,-18.554 3.4382,0 z m -0.0378,-8.53702 0,3.47481 -3.32717,0 0,-3.47481 3.32717,0 z m 19.4764,18.6284 -13.1209,0 c 0.12402,1.99489 0.75236,3.54213 1.88504,4.63702 1.13386,1.09725 2.67402,1.64528 4.62048,1.64528 0.88701,0 1.74922,-0.11574 2.58662,-0.35078 0.83858,-0.23386 1.6878,-0.57284 2.55119,-1.01693 l 0,2.95749 c -0.86339,0.36968 -1.78111,0.63425 -2.75434,0.7937 -0.97323,0.16063 -2.01378,0.24094 -3.12284,0.24094 -1.40433,0 -2.66693,-0.22795 -3.7878,-0.68386 -1.12205,-0.4559 -2.07638,-1.10906 -2.86536,-1.95945 -0.7878,-0.84921 -1.39134,-1.88504 -1.81063,-3.10394 -0.41929,-1.22008 -0.62835,-2.60552 -0.62835,-4.15867 0,-1.42796 0.20906,-2.73426 0.62835,-3.91654 0.41929,-1.18347 1.01103,-2.18741 1.77402,-3.013 0.76417,-0.82441 1.67599,-1.46575 2.73544,-1.92166 1.05827,-0.4559 2.22993,-0.68386 3.51024,-0.68386 2.41536,0 4.3193,0.80079 5.71064,2.40237 1.39252,1.60158 2.08819,3.8445 2.08819,6.72757 l 0,1.40433 z m -3.21615,-2.29252 c -0.12284,-1.87205 -0.59646,-3.30119 -1.42205,-4.28741 -0.82559,-0.98504 -1.94056,-1.47756 -3.34489,-1.47756 -1.35591,0 -2.48859,0.49843 -3.4004,1.49646 -0.91181,0.99804 -1.46575,2.42126 -1.663,4.26851 l 9.83033,0 z m 20.328,-4.17639 c 0.68976,-1.32992 1.56378,-2.33386 2.62441,-3.01182 1.05827,-0.67795 2.27953,-1.01693 3.65788,-1.01693 1.92284,0 3.39449,0.65434 4.41733,1.95945 1.02284,1.3063 1.53307,3.24095 1.53307,5.80277 l 0,11.1981 -3.43583,0 0,-10.4221 c 0,-1.84725 -0.28465,-3.22796 -0.8504,-4.13977 -0.56693,-0.91063 -1.47874,-1.36772 -2.73544,-1.36772 -1.45394,0 -2.6126,0.55512 -3.47481,1.663 -0.86102,1.10906 -1.29213,2.71064 -1.29213,4.80473 l 0,9.46183 -3.4382,0 0,-10.4221 c 0,-1.89685 -0.28346,-3.29056 -0.84921,-4.17639 -0.56693,-0.88701 -1.52835,-1.3311 -2.88308,-1.3311 -1.3311,0 -2.43426,0.55512 -3.30827,1.663 -0.8752,1.10906 -1.31221,2.71064 -1.31221,4.80473 l 0,9.46183 -3.4004,0 0,-18.554 3.14174,0 0,3.4382 c 0.66496,-1.2567 1.52126,-2.21221 2.56772,-2.86418 1.04764,-0.65315 2.23701,-0.98031 3.56812,-0.98031 1.30512,0 2.42008,0.33897 3.34371,1.01693 0.92481,0.67795 1.63229,1.68189 2.12599,3.01182 z m 19.7717,22.656 -3.43701,0 0,-26.2784 3.10394,0 0,3.58583 c 0.71575,-1.32992 1.63347,-2.33386 2.75434,-3.01182 1.12087,-0.67795 2.38347,-1.01693 3.7878,-1.01693 1.10906,0 2.13189,0.21496 3.06733,0.64725 0.93662,0.4311 1.74331,1.05236 2.42126,1.86615 0.67677,0.8126 1.20709,1.79882 1.58977,2.95631 0.3815,1.15866 0.57165,2.45197 0.57165,3.88229 0,1.55079 -0.19015,2.93741 -0.57165,4.15631 -0.38268,1.22126 -0.91299,2.26182 -1.58977,3.12402 -0.67795,0.8622 -1.49646,1.52126 -2.45788,1.97717 -0.96142,0.45472 -2.02087,0.68386 -3.17835,0.68386 -2.66103,0 -4.6819,-1.09725 -6.06143,-3.29056 l 0,10.7185 z m 10.2378,-17.1496 c 0,-2.16733 -0.45,-3.84331 -1.34882,-5.0256 -0.89882,-1.18347 -2.10119,-1.77402 -3.60473,-1.77402 -1.55079,0 -2.82048,0.59764 -3.8067,1.79292 -0.98504,1.19528 -1.47756,2.87599 -1.47756,5.0445 0,2.24174 0.47362,3.96733 1.42323,5.17442 0.94843,1.20827 2.18622,1.81063 3.71457,1.81063 1.52717,0 2.75906,-0.60945 3.69568,-1.82835 0.93662,-1.22008 1.40433,-2.95158 1.40433,-5.1945 z m 16.5567,-6.06025 c -0.51732,-0.14881 -0.99803,-0.22204 -1.44213,-0.22204 -1.55315,0 -2.75906,0.54212 -3.62127,1.62638 -0.86339,1.08425 -1.29449,2.67402 -1.29449,4.76812 l 0,9.31301 -3.43701,0 0,-18.554 3.10512,0 0,3.80788 c 0.51732,-1.32992 1.23189,-2.35394 2.14371,-3.06851 0.91063,-0.71339 1.98307,-1.07126 3.21497,-1.07126 0.39331,0 0.87402,0.0366 1.44095,0.11102 l -0.10984,3.28938 z m 16.9996,7.02285 -13.1209,0 c 0.12283,1.99489 0.75236,3.54213 1.88504,4.63702 1.13386,1.09725 2.67402,1.64528 4.6193,1.64528 0.88819,0 1.7504,-0.11574 2.5878,-0.35078 0.8374,-0.23386 1.6878,-0.57284 2.55001,-1.01693 l 0,2.95749 c -0.86221,0.36968 -1.77992,0.63425 -2.75316,0.7937 -0.97323,0.16063 -2.01378,0.24094 -3.12284,0.24094 -1.40551,0 -2.66812,-0.22795 -3.78898,-0.68386 -1.12087,-0.4559 -2.07638,-1.10906 -2.86418,-1.95945 -0.78898,-0.84921 -1.39252,-1.88504 -1.81063,-3.10394 -0.41929,-1.22008 -0.62835,-2.60552 -0.62835,-4.15867 0,-1.42796 0.20906,-2.73426 0.62835,-3.91654 0.41811,-1.18347 1.00984,-2.18741 1.77402,-3.013 0.76417,-0.82441 1.67599,-1.46575 2.73544,-1.92166 1.05827,-0.4559 2.22993,-0.68386 3.51024,-0.68386 2.41536,0 4.3193,0.80079 5.71064,2.40237 1.39252,1.60158 2.08819,3.8445 2.08819,6.72757 l 0,1.40433 z m -2.8689,-2.29252 c -0.12284,-1.87205 -0.94488,-3.30119 -1.76929,-4.28741 -0.82559,-0.98504 -1.94174,-1.47756 -3.34607,-1.47756 -1.35473,0 -2.48859,0.49843 -3.39922,1.49646 -0.91181,0.99804 -1.46575,2.42126 -1.66418,4.26851 l 10.1788,0 z"
   class="fil4" />
<path
   inkscape:connector-curvature="0"
   style="fill:url(#linearGradient3397);fill-rule:evenodd"
   id="path3340-9"
   d="m 77.917504,78.273743 -47.60983,-0.280035 c 0.15135,-26.27704 21.4242,-47.496489 47.60983,-47.496489 26.289996,0 47.609826,21.395078 47.609826,47.776549 l -47.609826,0 z"
   class="fil0" /><path
   style="fill:#ffffff"
   inkscape:connector-curvature="0"
   id="path3346"
   d="m 77.9175,77.9683 -26.4686,0.255119 c 0,-0.08268 0,-0.172441 0,-0.255119 0,-14.974 11.8524,-27.1182 26.4686,-27.1182 14.6162,0 26.4686,12.1441 26.4686,27.1182 l -26.4686,0 z"
   class="fil1" /><path
   inkscape:connector-curvature="0"
   style="fill:url(#linearGradient3373)"
   id="path3348"
   d="m 100.65,78.0486 c 0,12.5528 -10.1799,22.7327 -22.7327,22.7327 -12.5528,0 -22.7327,-10.1799 -22.7327,-22.7327 0,-12.5528 10.1799,-22.7327 22.7327,-22.7327 12.5528,0 22.7327,10.1799 22.7327,22.7327 z"
   class="fil3" /></svg>